<?xml version="1.0" standalone="no"?><!DOCTYPE svg PUBLIC "-//W3C//DTD SVG 1.1//EN" "http://www.w3.org/Graphics/SVG/1.1/DTD/svg11.dtd"><svg t="1735536969794" class="icon" viewBox="0 0 1024 1024" version="1.1" xmlns="http://www.w3.org/2000/svg" p-id="7349" xmlns:xlink="http://www.w3.org/1999/xlink" width="200" height="200"><path d="M895.156706 86.256941a30.177882 30.177882 0 0 1 42.767059-0.180706c11.745882 11.745882 11.745882 30.870588-0.180706 42.767059L128.843294 937.743059c-11.866353 11.866353-30.930824 12.047059-42.767059 0.180706-11.745882-11.745882-11.745882-30.870588 0.180706-42.767059L895.156706 86.256941z" fill="#000000" p-id="7350"></path><path d="M86.076235 86.076235c11.745882-11.745882 30.870588-11.745882 42.767059 0.180706l808.899765 808.899765c11.866353 11.866353 12.047059 30.930824 0.180706 42.767059-11.745882 11.745882-30.870588 11.745882-42.767059-0.180706L86.256941 128.843294a30.177882 30.177882 0 0 1-0.180706-42.767059z" fill="#000000" p-id="7351"></path><path d="M0 0h1024v1024H0z" fill="#FFF4F4" fill-opacity="0" p-id="7352"></path></svg>